# xmcd CD database file generated by Grip 2.98.0
# 
# Track frame offsets:
#       150
#       15633
#       28533
#       49630
#       65105
#       79503
#       90813
#       103965
#       118970
#       130468
#       145470
#       165910
#       177390
#       190165
#       207360
#       220540
#       244918
#       259285
#       264085
#       277380
#       287860
#       301178
#       311870
# 
# Disc length: 4357 secs
# 
# Revision: 2
# Processed by: cddbd v1.4PL0 Copyright (c) Steve Scherf et al.
# Submitted via: Grip 2.98.0
# 
DISCID=58110317
DTITLE=Big Bill Broonzy - House Rent Stomp
DYEAR=1990
DGENRE=Blues
TTITLE0=Big Bill Blues
TTITLE1=Little City Woman
TTITLE2=Back Water Blues
TTITLE3=Guitar Shuffle
TTITLE4=Romance Without Finance
TTITLE5=Jacqueline
TTITLE6=Lonesome
TTITLE7=House Rent Stomp
TTITLE8=Willie Mae Blues
TTITLE9=Saturday Evening Blues
TTITLE10=Louise, Louise Blues
TTITLE11=Key To The Highway
TTITLE12=Swing Low, Sweet Chariot
TTITLE13=Stump Blues
TTITLE14=Mindin' My Own Business
TTITLE15=Joe Turner Blues
TTITLE16=Makin' My Getaway
TTITLE17=Boogie Woogie
TTITLE18=See See Rider
TTITLE19=Goin' Down The Road Feelin' Bad
TTITLE20=Plowhand Blues
TTITLE21=I'm Gonna Move To The Outskirts Of Town
TTITLE22=How Long Blues
EXTD=
EXTT0=
EXTT1=
EXTT2=
EXTT3=
EXTT4=
EXTT5=
EXTT6=
EXTT7=
EXTT8=
EXTT9=
EXTT10=
EXTT11=
EXTT12=
EXTT13=
EXTT14=
EXTT15=
EXTT16=
EXTT17=
EXTT18=
EXTT19=
EXTT20=
EXTT21=
EXTT22=
PLAYORDER=
